<svg id="Layer_1" data-name="Layer 1" xmlns="http://www.w3.org/2000/svg" xmlns:xlink="http://www.w3.org/1999/xlink" viewBox="0 0 430.03 430.03"><defs><style>.cls-1,.cls-2,.cls-3,.cls-4,.cls-5,.cls-6,.cls-7{fill:none;stroke-linecap:round;stroke-linejoin:round;stroke-width:6px;}.cls-1{stroke:url(#linear-gradient);}.cls-2{stroke:url(#linear-gradient-2);}.cls-3{stroke:url(#linear-gradient-3);}.cls-4{stroke:url(#linear-gradient-4);}.cls-5{stroke:url(#linear-gradient-5);}.cls-6{stroke:url(#linear-gradient-6);}.cls-7{stroke:url(#linear-gradient-7);}</style><linearGradient id="linear-gradient" x1="132.49" y1="313.23" x2="468.58" y2="313.23" gradientUnits="userSpaceOnUse"><stop offset="0.01" stop-color="#f1c580"/><stop offset="0.28" stop-color="#f3d289"/><stop offset="0.37" stop-color="#f3e0ae"/><stop offset="0.38" stop-color="#f3e2b3"/><stop offset="0.73" stop-color="#c6862b"/><stop offset="0.95" stop-color="#efc283"/></linearGradient><linearGradient id="linear-gradient-2" x1="202.58" y1="85.46" x2="223.62" y2="85.46" xlink:href="#linear-gradient"/><linearGradient id="linear-gradient-3" x1="57.46" y1="270.78" x2="138.88" y2="270.78" xlink:href="#linear-gradient"/><linearGradient id="linear-gradient-4" x1="95.33" y1="212.57" x2="101.33" y2="212.57" xlink:href="#linear-gradient"/><linearGradient id="linear-gradient-5" x1="288.1" y1="270.78" x2="369.51" y2="270.78" xlink:href="#linear-gradient"/><linearGradient id="linear-gradient-6" x1="325.96" y1="212.57" x2="331.96" y2="212.57" xlink:href="#linear-gradient"/><linearGradient id="linear-gradient-7" x1="0" y1="215.02" x2="430.03" y2="215.02" xlink:href="#linear-gradient"/></defs><title>logo</title><path class="cls-1" d="M453.32,352.78l.31-.09L416.41,236.36a2.09,2.09,0,0,0,1.46-2v-7.2c.46.05.92.14,1.39.18,13.35,1.12,13.48-10.85,6.42-12-7.57-1.22-6.95,7.8-6.95,7.8a3.05,3.05,0,0,1-.86.32v-.95a2.1,2.1,0,1,0-4.2,0v.25c-9.05-3.6-26.48-18.47-52.71-24.69-15.16-3.59-38.95.76-52.18,3.78a13.4,13.4,0,0,0-3.31-3.13l-.06-4a10.63,10.63,0,1,0-10.84-.08l-.07,4.09a13.53,13.53,0,0,0-3.14,2.93c-13.38-3-36.44-7.09-51.26-3.58-26.23,6.22-43.66,21.09-52.71,24.69v-.25a2.1,2.1,0,1,0-4.2,0v.95a3.05,3.05,0,0,1-.86-.32s.62-9-6.94-7.8c-7.07,1.14-6.93,13.11,6.41,12,.47,0,.93-.13,1.39-.18v7.2a2.09,2.09,0,0,0,1.46,2L147.43,352.69l.32.09H135.49v3.13a3.13,3.13,0,0,0,3.13,3.13h1.83C145.2,375.65,162.67,388,183.56,388s38.37-12.34,43.12-28.95h1.83a3.13,3.13,0,0,0,3.13-3.13v-3.13h-8.8l.32-.09L184.65,236.36c.83-.28,2.74-1,2.74-2v-7.95c15.62-3.63,30.4-15.87,57-18.82,11-1.22,31.47,3.84,43.06,7.08.19,6.15,2.79,11.45,6.58,14.21l-1.65,105.51h-.08a2.87,2.87,0,0,0-2.87,2.87,2.82,2.82,0,0,0,2,2.69c-.82,3.86-2.1,16.45-3.41,22.17a225.12,225.12,0,0,0-4.48,25.11c-.25,2.84-.17,12.46.11,18.39a5.92,5.92,0,0,0-.47,11.77,9,9,0,0,0-5.13,8.13v8.2H251.36a17.74,17.74,0,0,0-17.74,17.74H366.35a17.74,17.74,0,0,0-17.74-17.74H321.9v-8.2a9,9,0,0,0-5.14-8.13,5.91,5.91,0,0,0-.46-11.77c.28-5.93.36-15.55.11-18.39a223.1,223.1,0,0,0-4.49-25.11c-1.3-5.72-2.58-18.31-3.4-22.17a2.83,2.83,0,0,0,2-2.69,2.87,2.87,0,0,0-2.86-2.87h-.09l-1.65-105.51c3.73-2.71,6.31-7.89,6.57-13.91,11.36-3.21,32.82-8.64,44.16-7.38,26.6,2.95,41.39,15.19,57,18.82v7.95a2.08,2.08,0,0,0,1.45,2L377.9,352.69l.32.09h-8.8v3.13a3.13,3.13,0,0,0,3.13,3.13h1.83C379.13,375.65,396.6,388,417.5,388s38.37-12.34,43.11-28.95h1.83a3.14,3.14,0,0,0,3.14-3.13v-3.13Zm-268-116.29Zm230.48,0Z" transform="translate(-86.97 -82)"/><circle class="cls-2" cx="213.1" cy="85.46" r="7.52"/><line class="cls-3" x1="60.46" y1="270.78" x2="135.88" y2="270.78"/><line class="cls-4" x1="98.33" y1="154.36" x2="98.33" y2="270.78"/><line class="cls-5" x1="291.1" y1="270.78" x2="366.51" y2="270.78"/><line class="cls-6" x1="328.96" y1="154.36" x2="328.96" y2="270.78"/><circle class="cls-7" cx="215.02" cy="215.02" r="212.02"/></svg>