<svg id="Layer_1" data-name="Layer 1" xmlns="http://www.w3.org/2000/svg" viewBox="0 0 499.91 512"><defs><style>.cls-1{fill:#3991ac;}.cls-2{fill:#368ca7;}.cls-3{fill:#3388a3;}.cls-4{fill:#2e829c;}.cls-5{fill:#2b7d96;}.cls-6{fill:#277891;}.cls-7{fill:#fff;}.cls-8{fill:#2f839d;}.cls-9{fill:#24738b;}.cls-10{fill:#2c7e97;}.cls-11{fill:#216e86;}.cls-12{fill:#287891;}.cls-13{fill:#1e6981;}.cls-14{fill:#25738c;}.cls-15{fill:#1b657c;}.cls-16{fill:#226f87;}.cls-17{fill:#1e6a82;}.cls-18{fill:#186076;}.cls-19{fill:#145b71;}.cls-20{fill:#072129;}</style></defs><title>Soroush-Logo</title><path class="cls-1" d="M242.11,0h28.33c12.07,1.71,24.3,2.43,36.2,5.24-4.48,2.51-10.11-.31-14.32,2.05a110.94,110.94,0,0,1-25.59,27.44c-9.27,10.32-22,16.09-34.21,22.12-7.41,1.87-14.19,5.45-21.19,8.38-9,2.56-18.55,2.09-27.72,3.85-11.72-.55-23.79.74-35.16-2.69C136,66.17,125,59.21,114,54.05c-4.76-3.66-9.63,1.79-14.77,1.27a248.09,248.09,0,0,1,131-53.93C234.14,1,238.15.68,242.11,0Z" transform="translate(-6.05)"/><path class="cls-2" d="M306.64,5.24a217.29,217.29,0,0,1,35,10,49.84,49.84,0,0,1-10.14-.34c-10.29,12-17.44,26.62-29.59,37.17-3.81,3.25-8,6.08-11.12,10.09-3.33,4.44-9.8,5.34-12.15,10.67-6.12.93-9.4,6.85-15,9-12.15,5.56-23.93,12.08-36.74,16-11.67,1.53-22.89,5.48-34.77,5.61-15.77,4.43-31.91,0-47.72-1.54C133.17,99,121.54,97.17,110.61,93c-10.28-5.62-21.9-8.93-31.14-16.36,0-1.28,0-2.55,0-3.83A243.23,243.23,0,0,1,99.18,55.32c5.14.52,10-4.93,14.77-1.27,11,5.16,22,12.12,34.5,12.34,11.37,3.43,23.44,2.14,35.16,2.69,9.17-1.76,18.69-1.29,27.72-3.85,7-2.93,13.78-6.51,21.19-8.38,12.17-6,24.94-11.8,34.21-22.12A110.94,110.94,0,0,0,292.32,7.29C296.53,4.93,302.16,7.75,306.64,5.24Z" transform="translate(-6.05)"/><path class="cls-3" d="M331.51,14.85a49.84,49.84,0,0,0,10.14.34,234.31,234.31,0,0,1,36.67,16.7c-1.85,1.23-4,2.22-5.37,4-11.65,22.94-29.89,41.53-47.52,59.88.9.8,1.8,1.61,2.73,2.39-31.29-2.75-62.52,11.23-83.19,34.47-4.6-.33-6.19,4.7-9.12,7.25-3.61,4-9.49,2.15-14.1,3.79-19.5,6.12-40.13,5.47-60.32,5.48-9.75-2-19.73-2.5-29.52-4.2-10-3.77-21.15-3.52-30.92-8-17.44-6.54-33.92-15.5-49.91-25-2.23,2.6-4.65,5.15-7.8,6.64A248.83,248.83,0,0,1,79.51,72.79c0,1.28,0,2.55,0,3.83,9.24,7.43,20.86,10.74,31.14,16.36,10.93,4.19,22.56,6,33.85,8.9,15.81,1.49,31.95,6,47.72,1.54,11.88-.13,23.1-4.08,34.77-5.61,12.81-4,24.59-10.48,36.74-16,5.56-2.14,8.84-8.06,15-9,2.35-5.33,8.82-6.23,12.15-10.67,3.08-4,7.31-6.84,11.12-10.09C314.07,41.47,321.22,26.89,331.51,14.85Z" transform="translate(-6.05)"/><path class="cls-4" d="M378.32,31.89a254.57,254.57,0,0,1,39,27.08c-5.65,4.3-10.72,9.56-13.1,16.4-6.27,9.16-12.54,18.49-20.58,26.25a220,220,0,0,1-22.05,25.77l-1.12-1.76c-3.24,5.52-9.61,7.9-13.37,12.94-4.62,6.59-13.52,7.8-18.75,13.75-2.25,2.46-5.09,6.09-8.88,4.32-2.64-2.87-4.25-6.48-6.42-9.68l-.32,2.31c-6.26-18.14,1.59-38.83,16.56-50.2l-1.17-.91c-.93-.78-1.83-1.59-2.73-2.39C343.06,77.42,361.3,58.83,373,35.89,374.35,34.11,376.47,33.12,378.32,31.89Z" transform="translate(-6.05)"/><path class="cls-5" d="M417.36,59a252.8,252.8,0,0,1,33,33.68c-9.41.47-11.57,11-17,16.84-6.42,6.47-9.07,15.86-16.49,21.45-3.53,2.54-5.08,6.74-7.93,9.84-5.43,3.59-8.86,9.26-13.88,13.33-10.78,12-23.84,21.78-37.32,30.59-4.57,3.24-8.49,7.42-13.67,9.73-3.86-3.52-7.08-7.8-11.67-10.44-8-10.65-15.46-22-19.67-34.72l.32-2.31c2.17,3.2,3.78,6.81,6.42,9.68,3.79,1.77,6.63-1.86,8.88-4.32,5.23-5.95,14.13-7.16,18.75-13.75,3.76-5,10.13-7.42,13.37-12.94l1.12,1.76a220,220,0,0,0,22.05-25.77c8-7.76,14.31-17.09,20.58-26.25C406.64,68.53,411.71,63.27,417.36,59Z" transform="translate(-6.05)"/><path class="cls-6" d="M433.4,109.49c5.43-5.8,7.59-16.37,17-16.84a249.86,249.86,0,0,1,29.1,45.11c-1.93-1.8-4-3.39-6.12-5-12.77,14.47-22.71,31.34-36.68,44.74l-1.36-2.11c-.68,2.12-1.28,4.39-2.92,6-12.64,13.84-28,24.69-42.41,36.56-6.55,5.27-14.43,8.75-19.92,15.33-3.56-4.71-6.26-10.41-11.69-13.31-7.94-12.51-17.45-23.9-26-36,4.59,2.64,7.81,6.92,11.67,10.44,5.18-2.31,9.1-6.49,13.67-9.73,13.48-8.81,26.54-18.56,37.32-30.59,5-4.07,8.45-9.74,13.88-13.33,2.85-3.1,4.4-7.3,7.93-9.84C424.33,125.35,427,116,433.4,109.49Z" transform="translate(-6.05)"/><path class="cls-7" d="M245,132.63c20.67-23.24,51.9-37.22,83.19-34.47l1.17.91c-15,11.37-22.82,32.06-16.56,50.2C317,162,324.47,173.34,332.44,184c8.51,12.1,18,23.49,26,36a174.57,174.57,0,0,1,16.88,37.22c4.75,17,6.82,34.81,4.56,52.34a108.6,108.6,0,0,1-12.61,38.59c-16.88,28.66-45.64,49.15-77.07,59.09-44.51,14.35-95.49,5.39-132.57-23.09-10.36-8.74-21.32-17.72-28-29.7,5.2.79,9.6,3.86,14.54,5.46,22.73,7.53,49.36,3.41,67.83-12.15a71.34,71.34,0,0,0,25.4-41.48c3.12-15,.79-30.58-3.5-45.11-3.75-14-9-27.49-11.83-41.7a112.54,112.54,0,0,1,.26-40.22A104.92,104.92,0,0,1,245,132.63Z" transform="translate(-6.05)"/><path class="cls-8" d="M43.28,118.6c3.15-1.49,5.57-4,7.8-6.64,16,9.51,32.47,18.47,49.91,25,9.77,4.46,20.9,4.21,30.92,8,9.79,1.7,19.77,2.21,29.52,4.2,20.19,0,40.82.64,60.32-5.48,4.61-1.64,10.49.18,14.1-3.79,2.93-2.55,4.52-7.58,9.12-7.25a104.92,104.92,0,0,0-22.69,46.61c-.18-.87-.52-2.6-.7-3.47a111.12,111.12,0,0,0-3.89,11.55c-16,4.39-32.64,3.72-49,3.94-20.84-1.22-42.08-2.89-61.82-9.95-18.67-3.8-36.42-11.38-53.53-19.63-6.81-4.84-15.31-7.33-20.77-13.94-2.8,2.58-5.1,5.68-8.12,8A224,224,0,0,1,43.28,118.6Z" transform="translate(-6.05)"/><path class="cls-9" d="M436.7,177.51c14-13.4,23.91-30.27,36.68-44.74,2.09,1.6,4.19,3.19,6.12,5a233.08,233.08,0,0,1,16.16,40.92,70.68,70.68,0,0,1-5.32-4.75c-9,6.19-11.5,18-21.12,23.32-16.11,16.54-32.24,33.24-50.88,47-11.49,6.57-20.9,16.38-32.85,22.2-6.41,2.76-5.27-7.54-10.21-9.23A174.57,174.57,0,0,0,358.4,220c5.43,2.9,8.13,8.6,11.69,13.31,5.49-6.58,13.37-10.06,19.92-15.33,14.41-11.87,29.77-22.72,42.41-36.56,1.64-1.62,2.24-3.89,2.92-6Z" transform="translate(-6.05)"/><path class="cls-10" d="M24.41,155.75c3-2.33,5.32-5.43,8.12-8,5.46,6.61,14,9.1,20.77,13.94,17.11,8.25,34.86,15.83,53.53,19.63,19.74,7.06,41,8.73,61.82,9.95,16.4-.22,33,.45,49-3.94a111.12,111.12,0,0,1,3.89-11.55c.18.87.52,2.6.7,3.47a112.54,112.54,0,0,0-.26,40.22c-.51,4.15-1.06,8.29-1.33,12.47-22.17,4.86-45,3.49-67.46,3.38-12.55-3.85-26.29-.55-38.44-6.08-13.61-2.28-27.27-5.44-40-10.94-15.55-4.57-31.06-10.32-44.45-19.6-4.77-2.36-10.25-3.32-14.32-7-1.21,2.83-2.44,5.66-3.76,8.45l-.56-3.42A225.27,225.27,0,0,1,24.41,155.75Z" transform="translate(-6.05)"/><path class="cls-11" d="M469.22,197.25c9.62-5.34,12.14-17.13,21.12-23.32a70.68,70.68,0,0,0,5.32,4.75,232.93,232.93,0,0,1,8.74,43.11c-.27,1.47-.56,2.93-.86,4.4-1.1-1.94-2.17-3.88-3.23-5.83-3.89,3.45-7.75,7-10.4,11.54-4.28,7.1-12.35,10.27-17.62,16.41-4.88,5.1-11,8.91-15.62,14.24-4.75,5.91-12.49,8.05-17.81,13.33a45.35,45.35,0,0,1-11.11,8c-3.95,2-5.72,6.87-10.06,8.23s-7.29,5.45-11.62,7c-7.93,2.73-13.31,9.65-21.07,12.76-1.71-.83-3.45-1.58-5.16-2.38,2.26-17.53.19-35.38-4.56-52.34,4.94,1.69,3.8,12,10.21,9.23,11.95-5.82,21.36-15.63,32.85-22.2C437,230.49,453.11,213.79,469.22,197.25Z" transform="translate(-6.05)"/><path class="cls-12" d="M16,191.7c4.07,3.67,9.55,4.63,14.32,7,13.39,9.28,28.9,15,44.45,19.6,12.72,5.5,26.38,8.66,40,10.94,12.15,5.53,25.89,2.23,38.44,6.08,22.49.11,45.29,1.48,67.46-3.38.27-4.18.82-8.32,1.33-12.47,2.78,14.21,8.08,27.74,11.83,41.7-2.24,5.06.52,10.5.22,15.77-19.76.78-39.23,5-59.06,4.81-6.13,1.1-12.19.12-18.11-1.48-7.46,1.2-14.65-1.47-22.06-1.77-10.61-.5-21.07-2.68-31.41-4.89-5,0-9.54-2.27-14.22-3.74C81,266.91,71.78,267.69,64.09,263c-19.76-5.45-37.71-15.43-56.51-23.46-.38-2.78-.74-5.58-1-8.38a257,257,0,0,1,5.1-34.47l.56,3.42C13.59,197.36,14.82,194.53,16,191.7Z" transform="translate(-6.05)"/><path class="cls-13" d="M489.91,231.9c2.65-4.54,6.51-8.09,10.4-11.54,1.06,1.95,2.13,3.89,3.23,5.83.3-1.47.59-2.93.86-4.4a246.72,246.72,0,0,1-1.35,65.65c-.63-4.21-1.52-8.38-2.3-12.56-8.89,3.55-12.92,13.17-21.2,17.66-20.28,17.29-43.16,31-65,46.16-8.32,4.37-17.62,6.9-25.14,12.75A179.11,179.11,0,0,1,359.61,365c2-5.9,8.37-10.13,7.62-16.85a108.6,108.6,0,0,0,12.61-38.59c1.71.8,3.45,1.55,5.16,2.38,7.76-3.11,13.14-10,21.07-12.76,4.33-1.59,7.26-5.54,11.62-7s6.11-6.21,10.06-8.23a45.35,45.35,0,0,0,11.11-8c5.32-5.28,13.06-7.42,17.81-13.33,4.66-5.33,10.74-9.14,15.62-14.24C477.56,242.17,485.63,239,489.91,231.9Z" transform="translate(-6.05)"/><path class="cls-14" d="M9,288.42A262.08,262.08,0,0,1,6.61,231.2c.23,2.8.59,5.6,1,8.38,18.8,8,36.75,18,56.51,23.46,7.69,4.65,16.87,3.87,25.12,6.82,4.68,1.47,9.19,3.78,14.22,3.74,10.34,2.21,20.8,4.39,31.41,4.89,7.41.3,14.6,3,22.06,1.77,5.92,1.6,12,2.58,18.11,1.48,19.83.19,39.3-4,59.06-4.81.3-5.27-2.46-10.71-.22-15.77,4.29,14.53,6.62,30.1,3.5,45.11-.24-1.5-.49-3-.77-4.46-1.72,4.12-2.2,9.07-5.38,12.37-6,2.43-12.81,2-19.2,2.8-31.72,4.63-63.87.86-95.55-2.26-35.48-5.67-70.35-15.49-103-30.59C12,285.57,10.49,287,9,288.42Z" transform="translate(-6.05)"/><path class="cls-15" d="M479.55,292.54c8.28-4.49,12.31-14.11,21.2-17.66.78,4.18,1.67,8.35,2.3,12.56A238.68,238.68,0,0,1,485.9,347.6c-.06-2.94-.26-5.86-.4-8.79-14.06,6.56-24.5,18.56-38.34,25.43-6.56,5.16-14,8.92-21.49,12.45a228,228,0,0,1-38.75,19.38c-10.8,5.46-22,10-33.2,14.5-4.17.95-8.48,1.61-12.14,4-4.73,3-10.62,1.43-15.59,3.54-7.75,4.46-16.76,5.58-25.09,8.58-14.5.64-27.76,8-42.28,8-11.51,2.74-23.35,3.38-34.94,5.6-38.34,1.05-76.76,2.38-115-2.22-5.17-1.08-11.26-3.63-15.6.87A249.77,249.77,0,0,1,46.63,386c8.57-5.22,17.2,2.19,25.75,3.48,9.69,1,19.24,3.15,29,3.8,4.56,2.48,9.58,2.87,14.69,2.57,12,2.29,24.2,3.73,36.39,2.68,7.15.59,14.33,1.62,21.49.22-5.51-4.67-13.74-7.32-16.32-14.62,37.08,28.48,88.06,37.44,132.57,23.09,31.43-9.94,60.19-30.43,77.07-59.09.75,6.72-5.63,10.95-7.62,16.85a179.11,179.11,0,0,0,29.82-13.54c7.52-5.85,16.82-8.38,25.14-12.75C436.39,323.55,459.27,309.83,479.55,292.54Z" transform="translate(-6.05)"/><path class="cls-16" d="M9,288.42c1.45-1.44,2.94-2.85,4.38-4.29,32.68,15.1,67.55,24.92,103,30.59,31.68,3.12,63.83,6.89,95.55,2.26,6.39-.82,13.15-.37,19.2-2.8,3.18-3.3,3.66-8.25,5.38-12.37.28,1.48.53,3,.77,4.46A71.34,71.34,0,0,1,212,347.75c-5.93.1-10.26,4.73-15.6,6.62-6.95,3.43-14.78,1.29-22.15,2.24-7.06,1-14.12-.53-21.2-.09-6.22.3-12.1-2-18-3.57-3.47-1.09-6.84,1.24-10.34.63-6.5-1.16-13.21-.85-19.55-2.87-8-2.43-16.52-1.89-24.47-4.42-11.31-3.79-23.49-4.61-34.44-9.55-7.85-2.66-15.7-5.49-23.79-7.34.43,2.09.83,4.18,1.27,6.28L22,337.61A248.32,248.32,0,0,1,9,288.42Z" transform="translate(-6.05)"/><path class="cls-17" d="M22.41,329.4c8.09,1.85,15.94,4.68,23.79,7.34,10.95,4.94,23.13,5.76,34.44,9.55,8,2.53,16.49,2,24.47,4.42,6.34,2,13,1.71,19.55,2.87,3.5.61,6.87-1.72,10.34-.63,5.9,1.61,11.78,3.87,18,3.57,7.08-.44,14.14,1.07,21.2.09,7.37-.95,15.2,1.19,22.15-2.24,5.34-1.89,9.67-6.52,15.6-6.62-18.47,15.56-45.1,19.68-67.83,12.15-4.94-1.6-9.34-4.67-14.54-5.46,6.69,12,17.65,21,28,29.7,2.58,7.3,10.81,9.95,16.32,14.62-7.16,1.4-14.34.37-21.49-.22-12.19,1-24.44-.39-36.39-2.68-5.11.3-10.13-.09-14.69-2.57-9.72-.65-19.27-2.79-29-3.8-8.55-1.29-17.18-8.7-25.75-3.48A249.08,249.08,0,0,1,22,337.61l1.67-1.93C23.24,333.58,22.84,331.49,22.41,329.4Z" transform="translate(-6.05)"/><path class="cls-18" d="M447.16,364.24c13.84-6.87,24.28-18.87,38.34-25.43.14,2.93.34,5.85.4,8.79A249.39,249.39,0,0,1,416.52,441c-.22,5.79-.4,11.58-.45,17.38-1.31-6.43-2.55-13-1.91-19.55-9,2.94-16.48,9.25-25.8,11.18-7,1.79-13.29,5.48-19.56,8.93l-2.14-.82c-4,3.13-8.94,4.09-13.76,5.13-5.76,1.89-11.4,4.26-17.44,5.14-.36.43-.71.86-1,1.3a176.63,176.63,0,0,1-18.22,3.58c-14.72,6-30.52,8.74-46.2,10.95-7.63,2.73-15.9,1-23.53,3.69-5.31,1.92-11-.4-16.3,1.51-7.35,2.14-17.28-2.26-22.54,5.09a249,249,0,0,1-114.5-55.55c4.34-4.5,10.43-1.95,15.6-.87,38.2,4.6,76.62,3.27,115,2.22,11.59-2.22,23.43-2.86,34.94-5.6,14.52,0,27.78-7.33,42.28-8,8.33-3,17.34-4.12,25.09-8.58,5-2.11,10.86-.57,15.59-3.54,3.66-2.4,8-3.06,12.14-4,11.22-4.46,22.4-9,33.2-14.5a228,228,0,0,0,38.75-19.38C433.18,373.16,440.6,369.4,447.16,364.24Z" transform="translate(-6.05)"/><path class="cls-19" d="M388.36,450c9.32-1.93,16.84-8.24,25.8-11.18-.64,6.59.6,13.12,1.91,19.55.42,16.58.22,33.18.08,49.77a38,38,0,0,1-2.28,3.89h-4c-19.69-10.26-39-21.28-58.65-31.61a250,250,0,0,1-143.56,14.08c5.26-7.35,15.19-3,22.54-5.09,5.31-1.91,11,.41,16.3-1.51,7.63-2.68,15.9-1,23.53-3.69,15.68-2.21,31.48-4.94,46.2-10.95a176.63,176.63,0,0,0,18.22-3.58c.34-.44.69-.87,1-1.3,6-.88,11.68-3.25,17.44-5.14,4.82-1,9.79-2,13.76-5.13l2.14.82C375.07,455.45,381.37,451.76,388.36,450Z" transform="translate(-6.05)"/><path class="cls-20" d="M416.07,458.34c.05-5.8.23-11.59.45-17.38.14,22.37.74,44.83-.37,67.15C416.29,491.52,416.49,474.92,416.07,458.34Z" transform="translate(-6.05)"/></svg>